<?xml version="1.0" encoding="UTF-8"?><svg id="uuid-5485e635-439b-46ba-b433-f3808c9e5641" xmlns="http://www.w3.org/2000/svg" viewBox="0 0 104.81 43.37"><path d="m.02,11.5h4.06c-.1,1.71.97,2.66,3.04,2.66,1.81,0,2.83-.76,2.83-1.83C9.95,9.01.19,12.02.19,5.44.19,2.02,2.8,0,6.96,0c4.44,0,7.11,2.3,6.72,5.94h-4.04c.17-1.76-.81-2.71-2.78-2.71-1.66,0-2.61.69-2.61,1.73,0,3.33,9.79.38,9.79,6.89,0,3.4-2.64,5.54-7.01,5.54S-.27,15.11.02,11.5Z"/><path d="m27.82,5.13l-4.32,12.74c-.36,1.02-1.4,4.28-5.42,4.28-.59,0-1.31-.07-2.04-.33v-3.18c.64.24,1.16.33,1.62.33,1.16,0,1.83-.64,2.23-1.35l-4.85-12.48h4.04l2.52,7.89,2.23-7.89h3.99Z"/><path d="m40.23,10.1v6.91h-3.8v-6.91c0-.86,0-2.28-1.59-2.28-1.28,0-2.21,1.33-2.21,3.3v5.89h-3.8V5.13h3.8v2.02c.59-1.5,1.95-2.4,3.73-2.4,3.87,0,3.87,3.9,3.87,5.35Z"/><path d="m53.41,10.1v6.91h-3.8v-6.91c0-.86,0-2.28-1.59-2.28-1.28,0-2.21,1.33-2.21,3.3v5.89h-3.8V5.13h3.8v2.02c.59-1.5,1.95-2.4,3.73-2.4,3.87,0,3.87,3.9,3.87,5.35Z"/><path d="m67.46,13.07c-.71,2.61-3.02,4.32-6.27,4.32-3.92,0-6.46-2.52-6.46-6.32s2.59-6.32,6.44-6.32c4.44,0,7.13,3.35,5.75,7.15h-8.2c.24,1.45,1.07,2.28,2.57,2.28,1,0,1.71-.38,2.07-1.12h4.11Zm-8.7-3.3h4.42c.12-1.14-.59-1.92-2.02-1.92-1.26,0-2.09.64-2.4,1.92Z"/><path d="m68.41,13.07h3.68c0,.86.76,1.4,2.02,1.4,1.07,0,1.83-.4,1.83-.93,0-1.64-7.39-.17-7.39-4.8,0-2.52,2.23-3.99,5.44-3.99s5.85,1.57,5.44,4.54h-3.71c.21-.97-.48-1.59-1.71-1.59-1.07,0-1.54.45-1.54.9,0,1.78,7.39.19,7.39,4.73,0,2.59-2.4,4.06-5.73,4.06-3.54,0-5.73-1.71-5.73-4.32Z"/><path d="m14.8,30.08c0,4.94-3.11,8.32-7.87,8.32H.64v-16.63h6.25c4.71,0,7.91,3.28,7.91,8.32Zm-2.42-.02c0-3.73-2.19-6.23-5.49-6.23h-3.9v12.5h3.9c3.26,0,5.49-2.5,5.49-6.27Z"/><path d="m27.01,26.52l-4.35,12.81c-.76,2.23-2.02,4.04-4.54,4.04-.64,0-1.33-.12-1.9-.36v-1.95c.59.21,1.14.33,1.69.33,1.66,0,2.26-1.21,2.64-2.33v-.02l-4.73-12.52h2.33l3.4,9.89,3.18-9.89h2.28Z"/><path d="m36.85,29.37c0,.76-.21,1.5-.5,2.11h-2.33c.36-.57.5-1.12.5-1.62,0-.97-.55-1.62-1.4-1.62-1.4,0-2.35,1.73-2.35,4.35v5.8h-2.21v-11.88h2.21v2.02c.67-1.47,1.76-2.33,3.18-2.33,1.78,0,2.9,1.38,2.9,3.16Z"/><path d="m49.47,34.74c-.69,2.45-2.71,3.97-5.54,3.97-3.61,0-5.89-2.5-5.89-6.25s2.3-6.25,5.99-6.25c4.06,0,6.01,3.04,4.97,6.96h-8.6c.24,2.23,1.5,3.56,3.54,3.56,1.52,0,2.69-.76,3.14-2h2.4Zm-9.03-3.37h6.53c.19-2-.9-3.23-3.02-3.23-1.97,0-3.21,1.19-3.52,3.23Z"/><path d="m62.73,38.4h-2.57c-.45-2.26-1.97-3.59-3.94-3.66v-1.66c2.14,0,3.52-1.16,3.52-2.76,0-1.35-1.02-2.07-2.33-2.07-1.97,0-3.4,1.73-3.4,4.37v5.77h-2.21v-16.63h2.21v7.01c.74-1.59,2.23-2.57,4.09-2.57,2.38,0,3.97,1.57,3.97,3.85,0,1.88-1.09,3.28-2.88,3.92,1.69.71,3.02,2.21,3.54,4.42Z"/><path d="m65.11,21.77h2.21v16.63h-2.21v-16.63Z"/><path d="m70.02,23.1c0-.88.67-1.54,1.54-1.54s1.52.67,1.52,1.54-.67,1.54-1.52,1.54-1.54-.69-1.54-1.54Zm.43,3.42h2.21v11.88h-2.21v-11.88Z"/><path d="m85.85,31.89v6.51h-2.21v-6.44c0-1.57,0-3.73-2.3-3.73-2.04,0-3.45,1.76-3.45,4.4v5.77h-2.21v-11.88h2.21v2.26c.86-1.62,2.33-2.57,4.16-2.57,3.8,0,3.8,3.73,3.8,5.68Z"/><path d="m88.23,23.1c0-.88.67-1.54,1.54-1.54s1.52.67,1.52,1.54-.67,1.54-1.52,1.54-1.54-.69-1.54-1.54Zm.43,3.42h2.21v11.88h-2.21v-11.88Z"/><path d="m104.81,38.4h-2.57c-.45-2.26-1.97-3.59-3.94-3.66v-1.66c2.14,0,3.52-1.16,3.52-2.76,0-1.35-1.02-2.07-2.33-2.07-1.97,0-3.4,1.73-3.4,4.37v5.77h-2.21v-16.63h2.21v7.01c.74-1.59,2.23-2.57,4.09-2.57,2.38,0,3.97,1.57,3.97,3.85,0,1.88-1.09,3.28-2.88,3.92,1.69.71,3.02,2.21,3.54,4.42Z"/></svg>
